<svg width="44" height="44" viewBox="0 0 44 44" fill="none" xmlns="http://www.w3.org/2000/svg">
<g clip-path="url(#clip0_88_3638)">
<path d="M22 0C9.86563 0 0 9.86563 0 22C0 34.1344 9.86563 44 22 44C34.1344 44 44 34.1344 44 22C44 9.86563 34.1344 0 22 0Z" fill="#FF5A5F"/>
<path d="M22.4271 28.1005C21.165 26.513 20.4226 25.1214 20.1752 23.9308C19.9277 22.9634 20.0267 22.1944 20.4474 21.6239C20.8928 20.9542 21.561 20.6317 22.4271 20.6317C23.2932 20.6317 23.9613 20.9542 24.4068 21.6239C24.8275 22.1944 24.9264 22.9634 24.679 23.9308C24.4068 25.1462 23.6644 26.5353 22.4271 28.1005ZM29.3362 31.7716C27.2328 32.6894 25.1516 31.2259 23.3699 29.2415C26.3172 25.5431 26.8616 22.6657 25.5971 20.8029C24.8547 19.7363 23.7906 19.2154 22.4271 19.2154C19.6803 19.2154 18.1683 21.547 18.7622 24.2532C19.1086 25.7167 20.0242 27.3811 21.4843 29.2415C20.3891 30.4579 18.9524 31.8377 17.2279 31.9948C14.7286 32.3669 12.7711 29.936 13.662 27.4283L19.9995 14.2767C20.5404 13.288 21.208 12.4412 22.4246 12.4412C23.3155 12.4412 24.0084 12.9621 24.3053 13.3837L31.1872 27.4283C31.8615 29.1253 31.0064 31.0487 29.3362 31.7716ZM32.5285 26.9322L26.6364 14.6488C25.5228 12.3667 24.731 11 22.4271 11C20.1504 11 19.1829 12.5875 18.193 14.6488L12.3257 26.9322C11.0636 30.4073 13.662 33.4583 16.8072 33.4583C17.0052 33.4583 17.2017 33.4335 17.4011 33.4335C19.0344 33.2351 20.7196 32.1933 22.4271 30.3304C24.1346 32.1908 25.8198 33.2351 27.453 33.4335C27.6524 33.4335 27.8489 33.4583 28.0469 33.4583C31.1922 33.4608 33.7905 30.4073 32.5285 26.9322Z" fill="white"/>
</g>
<defs>
<clipPath id="clip0_88_3638">
<rect width="44" height="44" fill="white"/>
</clipPath>
</defs>
</svg>
