<svg width="24" height="24" viewBox="0 0 24 24" fill="none" xmlns="http://www.w3.org/2000/svg">
<path fill-rule="evenodd" clip-rule="evenodd" d="M19.691 8.84184C18.7013 7.60848 17.3126 6.89496 16.0018 6.89496C14.2675 6.89496 13.5348 7.71888 12.3317 7.71888C11.0916 7.71888 10.1486 6.89616 8.64864 6.89616C7.17528 6.89616 5.6088 7.79112 4.61568 9.32064C3.21816 11.4715 3.4548 15.5184 5.72088 18.967C6.53136 20.2001 7.61376 21.5868 9.02904 21.6C10.2869 21.6115 10.6428 20.7977 12.3494 20.7881C14.0563 20.7787 14.3791 21.6089 15.6367 21.5971C17.052 21.5837 18.1939 20.0482 19.0039 18.8148C19.5845 17.9314 19.8007 17.485 20.2517 16.4863C16.9754 15.2484 16.4486 10.619 19.691 8.84184Z" fill="#111827"/>
<path fill-rule="evenodd" clip-rule="evenodd" d="M14.6862 5.51714C15.3162 4.70882 15.7948 3.5669 15.621 2.40002C14.5919 2.47106 13.3881 3.12554 12.6854 3.97922C12.0474 4.75394 11.5206 5.90282 11.7256 7.01954C12.849 7.05434 14.0116 6.38306 14.6862 5.51714Z" fill="#111827"/>
</svg>
