<svg width="19" height="19" viewBox="0 0 19 19" fill="none" xmlns="http://www.w3.org/2000/svg">
<path d="M18.8151 7.63936H18.0498V7.59993H9.49992V11.3999H14.8688C14.0855 13.612 11.9808 15.1999 9.49992 15.1999C6.35212 15.1999 3.79997 12.6477 3.79997 9.49992C3.79997 6.35212 6.35212 3.79997 9.49992 3.79997C10.9529 3.79997 12.2748 4.34811 13.2814 5.24348L15.9684 2.55643C14.2717 0.975166 12.0022 0 9.49992 0C4.25359 0 0 4.25359 0 9.49992C0 14.7462 4.25359 18.9998 9.49992 18.9998C14.7462 18.9998 18.9998 14.7462 18.9998 9.49992C18.9998 8.86295 18.9343 8.24118 18.8151 7.63936Z" fill="#FFC107"/>
</svg>
